<?xml version="1.0" encoding="UTF-8"?>
<!DOCTYPE svg PUBLIC "-//W3C//DTD SVG 1.1//EN" "http://www.w3.org/Graphics/SVG/1.1/DTD/svg11.dtd">
<svg xmlns="http://www.w3.org/2000/svg" version="1.1" width="689px" height="664px" style="shape-rendering:geometricPrecision; text-rendering:geometricPrecision; image-rendering:optimizeQuality; fill-rule:evenodd; clip-rule:evenodd" xmlns:xlink="http://www.w3.org/1999/xlink">
<g><path style="opacity:0.251" fill="#ced5d7" d="M 307.5,52.5 C 307.5,52.1667 307.5,51.8333 307.5,51.5C 407.167,51.3333 506.834,51.5 606.5,52C 609.104,52.3903 611.438,53.2237 613.5,54.5C 613.158,55.3382 612.492,55.6716 611.5,55.5C 607.583,54.3633 603.583,53.53 599.5,53C 526.834,52.5 454.167,52.3333 381.5,52.5C 356.833,52.5 332.167,52.5 307.5,52.5 Z"/></g>
<g><path style="opacity:0.994" fill="#17232c" d="M 307.5,52.5 C 332.167,52.5 356.833,52.5 381.5,52.5C 386.034,53.2159 390.701,53.8825 395.5,54.5C 417.608,52.6717 439.608,53.3384 461.5,56.5C 463.429,56.4604 465.262,56.1271 467,55.5C 467.49,56.7932 467.657,58.1266 467.5,59.5C 474.167,59.5 480.833,59.5 487.5,59.5C 487.343,58.1266 487.51,56.7932 488,55.5C 492.811,56.9518 497.478,56.6184 502,54.5C 505.007,55.979 508.174,56.6457 511.5,56.5C 511.5,58.8333 511.5,61.1667 511.5,63.5C 513.199,63.3398 514.866,63.5065 516.5,64C 515.663,65.0113 515.33,66.1779 515.5,67.5C 516.833,67.5 518.167,67.5 519.5,67.5C 519.5,69.5 519.5,71.5 519.5,73.5C 515.63,72.201 511.63,71.5343 507.5,71.5C 507.5,69.1667 507.5,66.8333 507.5,64.5C 502.833,64.5 498.167,64.5 493.5,64.5C 493.5,65.5 493.5,66.5 493.5,67.5C 494.833,67.5 496.167,67.5 497.5,67.5C 498.167,70.1667 498.833,72.8333 499.5,75.5C 488.769,75.0973 478.102,75.5973 467.5,77C 474.167,77.1667 480.833,77.3333 487.5,77.5C 494.668,77.4631 501.668,76.7965 508.5,75.5C 509.452,77.0453 509.785,78.712 509.5,80.5C 395.999,80.1672 282.665,80.5005 169.5,81.5C 167.5,81.5 165.5,81.5 163.5,81.5C 163.174,84.3113 162.341,86.978 161,89.5C 146.744,109.59 129.911,127.257 110.5,142.5C 108.913,138.684 110.246,136.35 114.5,135.5C 118.452,132.258 121.952,128.592 125,124.5C 125.414,124.957 125.914,125.291 126.5,125.5C 127.719,124.354 129.052,123.354 130.5,122.5C 129.109,120.064 129.609,119.398 132,120.5C 135.061,116.281 137.894,111.948 140.5,107.5C 141.325,106.614 142.325,106.281 143.5,106.5C 143.5,105.167 143.5,103.833 143.5,102.5C 142.167,102.5 140.833,102.5 139.5,102.5C 139.823,98.774 139.489,95.1073 138.5,91.5C 137.689,89.6091 136.356,88.2758 134.5,87.5C 133.682,84.8929 133.182,82.2263 133,79.5C 129.927,80.6168 126.76,80.7835 123.5,80C 126.146,79.5026 128.813,79.3359 131.5,79.5C 131.895,76.4775 130.895,75.4775 128.5,76.5C 124.59,74.7836 122.923,71.7836 123.5,67.5C 119.5,67.5 115.5,67.5 111.5,67.5C 111.5,69.5 111.5,71.5 111.5,73.5C 100.874,74.6956 90.2074,75.3623 79.5,75.5C 78.5959,83.5913 77.2626,91.5913 75.5,99.5C 74.1667,99.5 72.8333,99.5 71.5,99.5C 71.5,96.8333 71.5,94.1667 71.5,91.5C 70.1667,91.5 68.8333,91.5 67.5,91.5C 67.5,90.1667 67.5,88.8333 67.5,87.5C 66.1667,87.5 64.8333,87.5 63.5,87.5C 63.5,88.8333 63.5,90.1667 63.5,91.5C 62.1667,91.5 60.8333,91.5 59.5,91.5C 60.205,88.7557 60.205,86.089 59.5,83.5C 57.7298,86.1934 57.0632,89.1934 57.5,92.5C 56.5,92.5 55.5,92.5 54.5,92.5C 54.7373,91.209 54.404,90.209 53.5,89.5C 55.8048,68.3618 67.4714,56.1951 88.5,53C 161.499,52.5 234.499,52.3333 307.5,52.5 Z"/></g>
<g><path style="opacity:0.996" fill="#17232c" d="M 381.5,52.5 C 454.167,52.3333 526.834,52.5 599.5,53C 603.583,53.53 607.583,54.3633 611.5,55.5C 624.576,61.2484 631.909,71.2484 633.5,85.5C 632.501,127.33 632.168,169.33 632.5,211.5C 631.5,211.5 630.5,211.5 629.5,211.5C 629.666,204.492 629.5,197.492 629,190.5C 627.347,187.074 626.513,183.407 626.5,179.5C 625.5,179.5 624.5,179.5 623.5,179.5C 623.5,176.833 623.5,174.167 623.5,171.5C 622.167,171.5 620.833,171.5 619.5,171.5C 619.5,168.833 619.5,166.167 619.5,163.5C 618.167,163.5 616.833,163.5 615.5,163.5C 615.5,164.833 615.5,166.167 615.5,167.5C 614.167,167.5 612.833,167.5 611.5,167.5C 611.808,165.076 611.474,162.743 610.5,160.5C 609.859,161.993 608.859,162.993 607.5,163.5C 607.5,162.833 607.167,162.5 606.5,162.5C 606.567,160.599 606.233,158.766 605.5,157C 606.992,149.757 607.659,142.424 607.5,135C 606.951,118.835 606.451,102.668 606,86.5C 605.691,85.2341 605.191,84.0674 604.5,83C 603.563,82.3083 602.897,82.475 602.5,83.5C 587.372,82.1917 572.372,82.1917 557.5,83.5C 556.957,83.44 556.624,83.1067 556.5,82.5C 559.107,81.6816 561.774,81.1816 564.5,81C 561.167,80.3333 557.833,80.3333 554.5,81C 555.38,82.3561 555.714,83.8561 555.5,85.5C 551.534,86.1621 547.534,86.4955 543.5,86.5C 543.5,85.5 543.5,84.5 543.5,83.5C 538.786,83.8266 534.12,83.4933 529.5,82.5C 528.149,80.981 526.649,79.6477 525,78.5C 520.142,80.4141 514.975,81.0807 509.5,80.5C 509.785,78.712 509.452,77.0453 508.5,75.5C 501.668,76.7965 494.668,77.4631 487.5,77.5C 480.833,77.3333 474.167,77.1667 467.5,77C 478.102,75.5973 488.769,75.0973 499.5,75.5C 498.833,72.8333 498.167,70.1667 497.5,67.5C 496.167,67.5 494.833,67.5 493.5,67.5C 493.5,66.5 493.5,65.5 493.5,64.5C 498.167,64.5 502.833,64.5 507.5,64.5C 507.5,66.8333 507.5,69.1667 507.5,71.5C 511.63,71.5343 515.63,72.201 519.5,73.5C 519.5,71.5 519.5,69.5 519.5,67.5C 518.167,67.5 516.833,67.5 515.5,67.5C 515.33,66.1779 515.663,65.0113 516.5,64C 514.866,63.5065 513.199,63.3398 511.5,63.5C 511.5,61.1667 511.5,58.8333 511.5,56.5C 508.174,56.6457 505.007,55.979 502,54.5C 497.478,56.6184 492.811,56.9518 488,55.5C 487.51,56.7932 487.343,58.1266 487.5,59.5C 480.833,59.5 474.167,59.5 467.5,59.5C 467.657,58.1266 467.49,56.7932 467,55.5C 465.262,56.1271 463.429,56.4604 461.5,56.5C 439.608,53.3384 417.608,52.6717 395.5,54.5C 390.701,53.8825 386.034,53.2159 381.5,52.5 Z"/></g>
<g><path style="opacity:0.094" fill="#dfe2e5" d="M 307.5,51.5 C 307.5,51.8333 307.5,52.1667 307.5,52.5C 234.499,52.3333 161.499,52.5 88.5,53C 67.4714,56.1951 55.8048,68.3618 53.5,89.5C 53.5,195.5 53.5,301.5 53.5,407.5C 53.4633,425.951 62.13,438.117 79.5,444C 136.833,444.667 194.167,444.667 251.5,444C 253.782,439.384 257.116,435.717 261.5,433C 258.188,427.4 255.855,421.4 254.5,415C 224.84,414.06 195.173,413.393 165.5,413C 157.329,400.469 148.329,388.636 138.5,377.5C 123.764,359.581 105.597,346.581 84,338.5C 83.1667,278.497 83.3334,218.497 84.5,158.5C 93.1946,153.156 101.861,147.822 110.5,142.5C 129.911,127.257 146.744,109.59 161,89.5C 162.341,86.978 163.174,84.3113 163.5,81.5C 165.5,81.5 167.5,81.5 169.5,81.5C 287.793,82.4961 406.126,82.8294 524.5,82.5C 524.755,85.0163 525.589,87.3496 527,89.5C 537.285,104.868 549.119,119.035 562.5,132C 567.987,136.576 573.653,140.909 579.5,145C 587.896,149.86 596.23,154.693 604.5,159.5C 604.5,219.5 604.5,279.5 604.5,339.5C 588.105,343.363 574.105,351.363 562.5,363.5C 552.788,372.712 543.955,382.712 536,393.5C 531.72,399.725 528.22,406.391 525.5,413.5C 494.507,413.485 463.507,413.818 432.5,414.5C 432.296,421.112 430.296,427.112 426.5,432.5C 430.325,435.493 433.659,438.993 436.5,443C 447.161,443.5 457.828,443.667 468.5,443.5C 514.17,443.717 559.836,443.883 605.5,444C 614.187,442.478 620.853,437.978 625.5,430.5C 629.003,426.81 631.503,422.477 633,417.5C 633.5,306.834 633.667,196.167 633.5,85.5C 631.909,71.2484 624.576,61.2484 611.5,55.5C 612.492,55.6716 613.158,55.3382 613.5,54.5C 625.119,59.3612 632.285,68.0279 635,80.5C 635.994,194.556 635.661,308.556 634,422.5C 629.291,430.215 623.458,437.049 616.5,443C 610.642,445.727 604.476,447.227 598,447.5C 543.842,446.59 489.675,445.756 435.5,445C 431.031,441.21 427.364,436.876 424.5,432C 427.758,425.226 430.425,418.226 432.5,411C 462.806,411.523 493.139,411.857 523.5,412C 537.144,383.411 557.478,360.745 584.5,344C 589.64,340.453 595.307,338.62 601.5,338.5C 602.401,278.715 602.401,219.049 601.5,159.5C 566.974,142.971 540.641,117.971 522.5,84.5C 403.504,83.5977 284.504,83.2644 165.5,83.5C 162.765,90.75 158.932,97.4167 154,103.5C 143.863,114.637 133.363,125.471 122.5,136C 110.548,145.282 98.0477,153.782 85,161.5C 85.8215,219.5 85.6548,277.5 84.5,335.5C 98.5433,340.688 111.21,348.188 122.5,358C 139.553,373.548 154.22,391.048 166.5,410.5C 196.247,411.015 225.914,411.848 255.5,413C 258.15,419.605 260.817,426.271 263.5,433C 259.155,436.685 255.488,441.018 252.5,446C 194.833,446.667 137.167,446.667 79.5,446C 65.0353,442.202 55.8686,433.035 52,418.5C 51.3333,306.5 51.3333,194.5 52,82.5C 56.0585,66.7744 65.8918,56.6078 81.5,52C 156.833,51.5 232.166,51.3333 307.5,51.5 Z M 560.5,85.5 C 574.026,84.2119 587.693,84.2119 601.5,85.5C 602.678,97.8311 602.678,110.164 601.5,122.5C 584.322,113.985 570.655,101.652 560.5,85.5 Z M 97.5,84.5 C 107.506,84.3335 117.506,84.5002 127.5,85C 117.07,99.7648 104.404,112.098 89.5,122C 88.2068,122.49 86.8734,122.657 85.5,122.5C 85.1677,110.482 85.501,98.4815 86.5,86.5C 90.3027,85.8963 93.9694,85.2296 97.5,84.5 Z M 599.5,372.5 C 601.25,375.355 602.083,378.689 602,382.5C 602.5,392.161 602.666,401.828 602.5,411.5C 588.816,411.329 575.149,411.662 561.5,412.5C 561.491,410.692 561.991,409.025 563,407.5C 572.781,393.216 584.948,381.55 599.5,372.5 Z M 85.5,373.5 C 98.4538,381.25 110.287,390.583 121,401.5C 123.546,404.86 125.379,408.526 126.5,412.5C 112.848,411.716 99.1814,411.382 85.5,411.5C 85.5,398.833 85.5,386.167 85.5,373.5 Z M 336.5,331.5 C 348.239,330.616 358.906,333.449 368.5,340C 392.446,360.296 396.279,383.796 380,410.5C 360.458,430.121 338.958,432.621 315.5,418C 301.64,404.419 296.14,387.919 299,368.5C 304.792,349.207 317.292,336.873 336.5,331.5 Z M 339.5,349.5 C 344.193,349.54 348.859,349.873 353.5,350.5C 354.78,351.931 356.447,352.598 358.5,352.5C 358.973,353.906 359.973,354.573 361.5,354.5C 361.973,355.906 362.973,356.573 364.5,356.5C 364.5,357.167 364.833,357.5 365.5,357.5C 365.5,358.167 365.833,358.5 366.5,358.5C 366.5,359.167 366.833,359.5 367.5,359.5C 367.5,360.167 367.833,360.5 368.5,360.5C 374.812,372.25 375.146,384.25 369.5,396.5C 368.094,396.973 367.427,397.973 367.5,399.5C 366.662,399.842 366.328,400.508 366.5,401.5C 364.5,402.833 362.833,404.5 361.5,406.5C 359.847,406.66 358.514,407.326 357.5,408.5C 356.508,408.328 355.842,408.662 355.5,409.5C 344.661,412.285 334.328,410.952 324.5,405.5C 324.5,404.833 324.167,404.5 323.5,404.5C 323.5,403.833 323.167,403.5 322.5,403.5C 322.5,402.833 322.167,402.5 321.5,402.5C 321.573,400.973 320.906,399.973 319.5,399.5C 312.586,387.253 312.253,374.92 318.5,362.5C 319.167,362.5 319.5,362.167 319.5,361.5C 321.5,360.167 323.167,358.5 324.5,356.5C 325.167,356.5 325.5,356.167 325.5,355.5C 329.151,354.341 332.485,352.674 335.5,350.5C 337.099,350.768 338.432,350.434 339.5,349.5 Z"/></g>
<g><path style="opacity:0.996" fill="#111d26" d="M 604.5,159.5 C 605.326,163.982 605.826,168.649 606,173.5C 606.499,169.848 606.665,166.182 606.5,162.5C 607.167,162.5 607.5,162.833 607.5,163.5C 610.083,178.155 610.083,192.821 607.5,207.5C 610.552,213.808 611.885,220.474 611.5,227.5C 610.167,227.5 608.833,227.5 607.5,227.5C 605.619,243.524 605.619,259.524 607.5,275.5C 606.441,285.75 606.608,296.083 608,306.5C 610.381,307.435 612.881,307.768 615.5,307.5C 615.5,312.833 615.5,318.167 615.5,323.5C 616.833,323.5 618.167,323.5 619.5,323.5C 619.5,326.167 619.5,328.833 619.5,331.5C 618.167,331.5 616.833,331.5 615.5,331.5C 615.831,339.528 615.498,347.528 614.5,355.5C 613.833,356.833 613.167,358.167 612.5,359.5C 611.833,358.833 611.167,358.167 610.5,357.5C 609.158,359.005 607.492,359.672 605.5,359.5C 605.449,361.57 606.115,363.403 607.5,365C 606.711,365.546 605.711,366.213 604.5,367C 605.5,367.833 606.5,368.667 607.5,369.5C 607.291,370.086 606.957,370.586 606.5,371C 607.624,371.249 608.624,371.749 609.5,372.5C 608.674,373.451 608.508,374.451 609,375.5C 610.5,376.667 612,377.833 613.5,379C 611.616,379.216 609.949,379.883 608.5,381C 609.448,381.483 610.448,381.649 611.5,381.5C 611.5,383.5 611.5,385.5 611.5,387.5C 610.167,387.5 608.833,387.5 607.5,387.5C 607.665,384.15 607.498,380.817 607,377.5C 606.501,382.155 606.334,386.821 606.5,391.5C 608.167,391.5 609.833,391.5 611.5,391.5C 611.5,392.833 611.5,394.167 611.5,395.5C 609.042,395.227 607.375,396.227 606.5,398.5C 608.045,399.452 609.712,399.785 611.5,399.5C 611.5,400.833 611.5,402.167 611.5,403.5C 609.833,403.5 608.167,403.5 606.5,403.5C 606.5,404.833 606.5,406.167 606.5,407.5C 609.5,407.5 612.5,407.5 615.5,407.5C 615.5,406.167 615.5,404.833 615.5,403.5C 616.833,403.5 618.167,403.5 619.5,403.5C 619.856,414.323 619.19,424.823 617.5,435C 617.667,435.5 617.833,436 618,436.5C 620.029,434.142 622.029,431.808 624,429.5C 624.383,430.056 624.883,430.389 625.5,430.5C 620.853,437.978 614.187,442.478 605.5,444C 559.836,443.883 514.17,443.717 468.5,443.5C 484.005,442.833 499.672,442.167 515.5,441.5C 515.92,439.674 515.92,437.674 515.5,435.5C 516.833,435.5 518.167,435.5 519.5,435.5C 519.343,436.873 519.51,438.207 520,439.5C 526.139,439.935 532.306,439.268 538.5,437.5C 540.95,437.761 543.283,438.428 545.5,439.5C 546.429,438.311 546.762,436.978 546.5,435.5C 548.167,435.5 549.833,435.5 551.5,435.5C 551.5,431.5 551.5,427.5 551.5,423.5C 552.675,423.719 553.675,423.386 554.5,422.5C 554.981,418.293 556.148,414.293 558,410.5C 558.399,410.728 558.565,411.062 558.5,411.5C 558.5,412.5 558.5,413.5 558.5,414.5C 572.677,414.829 586.677,414.496 600.5,413.5C 601.5,413.5 602.5,413.5 603.5,413.5C 604.166,406.174 604.5,398.674 604.5,391C 604.497,383.136 603.831,375.636 602.5,368.5C 598.308,368.492 594.141,368.158 590,367.5C 589.51,368.793 589.343,370.127 589.5,371.5C 587.5,371.5 585.5,371.5 583.5,371.5C 583.286,373.144 583.62,374.644 584.5,376C 582.667,376.5 581.5,377.667 581,379.5C 580.667,379.167 580.333,378.833 580,378.5C 578.287,383.316 574.787,385.983 569.5,386.5C 569.846,387.696 570.346,387.696 571,386.5C 571.808,388.579 571.641,390.579 570.5,392.5C 569.268,391.855 567.935,391.689 566.5,392C 567.711,391.107 567.711,390.274 566.5,389.5C 565.158,391.005 563.492,391.672 561.5,391.5C 560.833,394.167 560.167,396.833 559.5,399.5C 556.833,398.833 554.167,398.167 551.5,397.5C 551.672,399.492 551.005,401.158 549.5,402.5C 551.005,403.842 551.672,405.508 551.5,407.5C 545.304,408.011 539.304,409.344 533.5,411.5C 533.328,413.492 533.995,415.158 535.5,416.5C 533.37,417.777 531.704,417.277 530.5,415C 530.665,413.883 530.998,412.716 531.5,411.5C 528.833,410.167 528.833,408.833 531.5,407.5C 530.197,405.411 530.697,403.744 533,402.5C 533.414,402.957 533.914,403.291 534.5,403.5C 535.248,401.668 536.248,400.001 537.5,398.5C 537.291,397.914 536.957,397.414 536.5,397C 538.419,395.121 540.419,393.288 542.5,391.5C 543.472,384.695 547.306,380.695 554,379.5C 554.95,380.022 555.784,380.689 556.5,381.5C 557.382,380.24 558.382,379.074 559.5,378C 557.109,377.309 557.109,376.309 559.5,375C 554.444,374.771 554.111,372.771 558.5,369C 562.89,369.132 564.223,367.299 562.5,363.5C 574.105,351.363 588.105,343.363 604.5,339.5C 604.5,279.5 604.5,219.5 604.5,159.5 Z M 599.5,372.5 C 584.948,381.55 572.781,393.216 563,407.5C 561.991,409.025 561.491,410.692 561.5,412.5C 575.149,411.662 588.816,411.329 602.5,411.5C 602.666,401.828 602.5,392.161 602,382.5C 602.083,378.689 601.25,375.355 599.5,372.5 Z"/></g>
<g><path style="opacity:0.17" fill="#eaf0f2" d="M 524.5,312.5 C 533.528,312.46 542.528,312.96 551.5,314C 558.57,318.456 560.404,324.622 557,332.5C 554.778,336.388 551.612,339.221 547.5,341C 511.51,342.422 475.51,342.755 439.5,342C 429.295,337.669 426.795,330.503 432,320.5C 433.873,318.291 436.04,316.458 438.5,315C 467.302,313.884 495.969,313.051 524.5,312.5 Z"/></g>
<g><path style="opacity:0.996" fill="#101d26" d="M 441.5,315.5 C 477.835,315.333 514.168,315.5 550.5,316C 557.526,321.162 558.359,327.328 553,334.5C 551.269,336.617 549.102,338.117 546.5,339C 510.842,340.342 475.175,340.676 439.5,340C 430.979,335.021 429.479,328.521 435,320.5C 436.965,318.45 439.132,316.783 441.5,315.5 Z"/></g>
<g><path style="opacity:0.099" fill="#f9f8f8" d="M 134.5,254.5 C 135.167,254.5 135.833,254.5 136.5,254.5C 137.548,258.382 139.881,261.215 143.5,263C 150.167,263.333 156.833,263.667 163.5,264C 258.833,264.5 354.166,264.667 449.5,264.5C 454.5,265.167 459.5,265.833 464.5,266.5C 359.614,266.483 254.78,266.483 150,266.5C 141.751,266.412 136.584,262.412 134.5,254.5 Z"/></g>
<g><path style="opacity:0.993" fill="#131d26" d="M 165.5,241.5 C 166.261,242.391 167.261,243.058 168.5,243.5C 205.314,243.489 242.147,243.489 279,243.5C 293.662,242.929 308.162,242.262 322.5,241.5C 396.159,242.451 469.826,242.785 543.5,242.5C 552.243,246.903 553.743,253.236 548,261.5C 546.581,262.46 545.081,263.293 543.5,264C 512.168,264.5 480.835,264.667 449.5,264.5C 354.166,264.667 258.833,264.5 163.5,264C 156.833,263.667 150.167,263.333 143.5,263C 139.881,261.215 137.548,258.382 136.5,254.5C 136.4,249.404 138.4,245.237 142.5,242C 150.159,241.5 157.826,241.334 165.5,241.5 Z"/></g>
<g><path style="opacity:0.145" fill="#dee7e6" d="M 464.5,266.5 C 459.5,265.833 454.5,265.167 449.5,264.5C 480.835,264.667 512.168,264.5 543.5,264C 545.081,263.293 546.581,262.46 548,261.5C 553.743,253.236 552.243,246.903 543.5,242.5C 477.006,241.037 410.339,240.371 343.5,240.5C 301.999,240.5 260.665,240.833 219.5,241.5C 201.5,241.5 183.5,241.5 165.5,241.5C 157.826,241.334 150.159,241.5 142.5,242C 138.4,245.237 136.4,249.404 136.5,254.5C 135.833,254.5 135.167,254.5 134.5,254.5C 134.036,246.812 137.369,241.645 144.5,239C 221.994,239.498 299.494,239.332 377,238.5C 432.838,238.51 488.672,239.01 544.5,240C 552.538,243.243 555.371,249.077 553,257.5C 550.993,262.838 547.159,266.004 541.5,267C 515.859,266.567 490.192,266.401 464.5,266.5 Z"/></g>
<g><path style="opacity:0.671" fill="#374040" d="M 219.5,241.5 C 260.665,240.833 301.999,240.5 343.5,240.5C 410.339,240.371 477.006,241.037 543.5,242.5C 469.826,242.785 396.159,242.451 322.5,241.5C 288.167,241.5 253.833,241.5 219.5,241.5 Z"/></g>
<g><path style="opacity:0.879" fill="#1c2323" d="M 165.5,241.5 C 183.5,241.5 201.5,241.5 219.5,241.5C 253.833,241.5 288.167,241.5 322.5,241.5C 308.162,242.262 293.662,242.929 279,243.5C 242.147,243.489 205.314,243.489 168.5,243.5C 167.261,243.058 166.261,242.391 165.5,241.5 Z"/></g>
<g><path style="opacity:0.994" fill="#15212a" d="M 633.5,85.5 C 633.667,196.167 633.5,306.834 633,417.5C 631.503,422.477 629.003,426.81 625.5,430.5C 624.883,430.389 624.383,430.056 624,429.5C 622.029,431.808 620.029,434.142 618,436.5C 617.833,436 617.667,435.5 617.5,435C 619.19,424.823 619.856,414.323 619.5,403.5C 618.167,403.5 616.833,403.5 615.5,403.5C 615.5,404.833 615.5,406.167 615.5,407.5C 612.5,407.5 609.5,407.5 606.5,407.5C 606.5,406.167 606.5,404.833 606.5,403.5C 608.167,403.5 609.833,403.5 611.5,403.5C 611.5,402.167 611.5,400.833 611.5,399.5C 609.712,399.785 608.045,399.452 606.5,398.5C 607.375,396.227 609.042,395.227 611.5,395.5C 611.5,394.167 611.5,392.833 611.5,391.5C 609.833,391.5 608.167,391.5 606.5,391.5C 606.334,386.821 606.501,382.155 607,377.5C 607.498,380.817 607.665,384.15 607.5,387.5C 608.833,387.5 610.167,387.5 611.5,387.5C 611.5,385.5 611.5,383.5 611.5,381.5C 610.448,381.649 609.448,381.483 608.5,381C 609.949,379.883 611.616,379.216 613.5,379C 612,377.833 610.5,376.667 609,375.5C 608.508,374.451 608.674,373.451 609.5,372.5C 608.624,371.749 607.624,371.249 606.5,371C 606.957,370.586 607.291,370.086 607.5,369.5C 606.5,368.667 605.5,367.833 604.5,367C 605.711,366.213 606.711,365.546 607.5,365C 606.115,363.403 605.449,361.57 605.5,359.5C 607.492,359.672 609.158,359.005 610.5,357.5C 611.167,358.167 611.833,358.833 612.5,359.5C 613.167,358.167 613.833,356.833 614.5,355.5C 615.498,347.528 615.831,339.528 615.5,331.5C 616.833,331.5 618.167,331.5 619.5,331.5C 619.5,328.833 619.5,326.167 619.5,323.5C 618.167,323.5 616.833,323.5 615.5,323.5C 615.5,318.167 615.5,312.833 615.5,307.5C 612.881,307.768 610.381,307.435 608,306.5C 606.608,296.083 606.441,285.75 607.5,275.5C 605.619,259.524 605.619,243.524 607.5,227.5C 608.833,227.5 610.167,227.5 611.5,227.5C 611.885,220.474 610.552,213.808 607.5,207.5C 610.083,192.821 610.083,178.155 607.5,163.5C 608.859,162.993 609.859,161.993 610.5,160.5C 611.474,162.743 611.808,165.076 611.5,167.5C 612.833,167.5 614.167,167.5 615.5,167.5C 615.5,166.167 615.5,164.833 615.5,163.5C 616.833,163.5 618.167,163.5 619.5,163.5C 619.5,166.167 619.5,168.833 619.5,171.5C 620.833,171.5 622.167,171.5 623.5,171.5C 623.5,174.167 623.5,176.833 623.5,179.5C 624.5,179.5 625.5,179.5 626.5,179.5C 626.513,183.407 627.347,187.074 629,190.5C 629.5,197.492 629.666,204.492 629.5,211.5C 630.5,211.5 631.5,211.5 632.5,211.5C 632.168,169.33 632.501,127.33 633.5,85.5 Z"/></g>
<g><path style="opacity:0.283" fill="#eaf0ee" d="M 376.5,218.5 C 383.982,217.508 391.648,217.175 399.5,217.5C 439,217.08 478.334,216.414 517.5,215.5C 525.84,215.666 534.173,215.5 542.5,215C 549.683,211.802 552.516,206.302 551,198.5C 548.458,194.812 544.958,193.146 540.5,193.5C 520.18,194.105 499.846,194.105 479.5,193.5C 476.941,193.802 474.607,193.468 472.5,192.5C 497.506,191.76 522.506,191.593 547.5,192C 553.177,195.636 555.01,200.803 553,207.5C 551.248,211.588 548.415,214.754 544.5,217C 502.711,218.316 460.878,219.149 419,219.5C 404.828,219.278 390.662,218.944 376.5,218.5 Z"/></g>
<g><path style="opacity:0.105" fill="#e3e7e9" d="M 472.5,192.5 C 474.607,193.468 476.941,193.802 479.5,193.5C 476.375,194.479 473.042,194.813 469.5,194.5C 405.163,194.266 340.83,194.599 276.5,195.5C 236.852,193.877 197.185,193.211 157.5,193.5C 152.488,193.08 147.488,192.913 142.5,193C 137.574,195.353 135.74,199.186 137,204.5C 140.317,212.748 146.484,216.248 155.5,215C 163.827,215.5 172.16,215.666 180.5,215.5C 253.5,216.167 326.5,216.833 399.5,217.5C 391.648,217.175 383.982,217.508 376.5,218.5C 343.992,218.239 311.492,218.572 279,219.5C 234.14,219.083 189.307,217.916 144.5,216C 136.436,212.371 133.269,206.205 135,197.5C 136.5,194.667 138.667,192.5 141.5,191C 190.17,191.066 238.836,191.899 287.5,193.5C 349.162,192.555 410.828,192.221 472.5,192.5 Z"/></g>
<g><path style="opacity:0.994" fill="#111c23" d="M 479.5,193.5 C 499.846,194.105 520.18,194.105 540.5,193.5C 544.958,193.146 548.458,194.812 551,198.5C 552.516,206.302 549.683,211.802 542.5,215C 534.173,215.5 525.84,215.666 517.5,215.5C 446.499,215.667 375.499,215.5 304.5,215C 303.5,214.667 302.5,214.333 301.5,214C 310.683,213.694 319.85,212.861 329,211.5C 329.833,211.167 330.667,210.833 331.5,210.5C 327.555,209.509 323.555,209.176 319.5,209.5C 319.5,207.5 319.5,205.5 319.5,203.5C 324.833,203.5 330.167,203.5 335.5,203.5C 335.33,202.178 335.663,201.011 336.5,200C 340.764,199.629 344.931,198.796 349,197.5C 349.833,197.667 350.667,197.833 351.5,198C 346.502,198.428 346.335,199.261 351,200.5C 351.483,201.448 351.649,202.448 351.5,203.5C 356.833,203.5 362.167,203.5 367.5,203.5C 367.5,202.167 367.5,200.833 367.5,199.5C 389.952,199.265 412.452,199.265 435,199.5C 446.509,197.12 458.009,195.454 469.5,194.5C 473.042,194.813 476.375,194.479 479.5,193.5 Z"/></g>
<g><path style="opacity:0.993" fill="#192228" d="M 157.5,193.5 C 197.185,193.211 236.852,193.877 276.5,195.5C 340.83,194.599 405.163,194.266 469.5,194.5C 458.009,195.454 446.509,197.12 435,199.5C 412.452,199.265 389.952,199.265 367.5,199.5C 367.5,200.833 367.5,202.167 367.5,203.5C 362.167,203.5 356.833,203.5 351.5,203.5C 351.649,202.448 351.483,201.448 351,200.5C 346.335,199.261 346.502,198.428 351.5,198C 350.667,197.833 349.833,197.667 349,197.5C 344.931,198.796 340.764,199.629 336.5,200C 335.663,201.011 335.33,202.178 335.5,203.5C 330.167,203.5 324.833,203.5 319.5,203.5C 319.5,205.5 319.5,207.5 319.5,209.5C 323.555,209.176 327.555,209.509 331.5,210.5C 330.667,210.833 329.833,211.167 329,211.5C 319.85,212.861 310.683,213.694 301.5,214C 302.5,214.333 303.5,214.667 304.5,215C 375.499,215.5 446.499,215.667 517.5,215.5C 478.334,216.414 439,217.08 399.5,217.5C 326.5,216.833 253.5,216.167 180.5,215.5C 204.167,215.5 227.833,215.5 251.5,215.5C 251.5,214.167 251.5,212.833 251.5,211.5C 246.279,212.069 240.946,211.735 235.5,210.5C 240.694,208.942 240.694,207.942 235.5,207.5C 235.5,206.167 235.5,204.833 235.5,203.5C 234.167,203.5 232.833,203.5 231.5,203.5C 231.5,201.5 231.5,199.5 231.5,197.5C 216.876,198.014 202.21,197.347 187.5,195.5C 177.28,196.447 167.28,195.78 157.5,193.5 Z"/></g>
<g><path style="opacity:0.989" fill="#101a20" d="M 157.5,193.5 C 167.28,195.78 177.28,196.447 187.5,195.5C 202.21,197.347 216.876,198.014 231.5,197.5C 231.5,199.5 231.5,201.5 231.5,203.5C 232.833,203.5 234.167,203.5 235.5,203.5C 235.5,204.833 235.5,206.167 235.5,207.5C 240.694,207.942 240.694,208.942 235.5,210.5C 240.946,211.735 246.279,212.069 251.5,211.5C 251.5,212.833 251.5,214.167 251.5,215.5C 227.833,215.5 204.167,215.5 180.5,215.5C 172.16,215.666 163.827,215.5 155.5,215C 146.484,216.248 140.317,212.748 137,204.5C 135.74,199.186 137.574,195.353 142.5,193C 147.488,192.913 152.488,193.08 157.5,193.5 Z"/></g>
<g><path style="opacity:0.055" fill="#e2e6e7" d="M 175.5,140.5 C 289.006,140.258 402.506,140.925 516,142.5C 523.194,142.465 530.361,142.132 537.5,141.5C 551.617,142.114 556.45,149.114 552,162.5C 550.167,164.333 548.333,166.167 546.5,168C 544.167,168.333 541.833,168.667 539.5,169C 408.833,169.233 278.166,168.899 147.5,168C 133.085,162.969 130.752,154.635 140.5,143C 152.245,141.875 163.911,141.042 175.5,140.5 Z"/></g>
<g><path style="opacity:0.989" fill="#141e26" d="M 143.5,143.5 C 277.505,143.095 411.505,143.595 545.5,145C 551.63,149.073 553.13,154.573 550,161.5C 547.658,164.754 544.491,166.588 540.5,167C 408.833,167.186 277.166,166.853 145.5,166C 134.451,159.334 133.785,151.834 143.5,143.5 Z"/></g>
<g><path style="opacity:0.996" fill="#171f26" d="M 557.5,83.5 C 559.345,88.1864 561.845,92.5198 565,96.5C 570.5,102 576,107.5 581.5,113C 588.353,118.758 596.02,122.925 604.5,125.5C 604.667,112.163 604.5,98.8292 604,85.5C 603.722,84.5842 603.222,83.9175 602.5,83.5C 602.897,82.475 603.563,82.3083 604.5,83C 605.191,84.0674 605.691,85.2341 606,86.5C 606.451,102.668 606.951,118.835 607.5,135C 607.659,142.424 606.992,149.757 605.5,157C 606.233,158.766 606.567,160.599 606.5,162.5C 606.665,166.182 606.499,169.848 606,173.5C 605.826,168.649 605.326,163.982 604.5,159.5C 596.23,154.693 587.896,149.86 579.5,145C 573.653,140.909 567.987,136.576 562.5,132C 549.119,119.035 537.285,104.868 527,89.5C 525.589,87.3496 524.755,85.0163 524.5,82.5C 406.126,82.8294 287.793,82.4961 169.5,81.5C 282.665,80.5005 395.999,80.1672 509.5,80.5C 514.975,81.0807 520.142,80.4141 525,78.5C 526.649,79.6477 528.149,80.981 529.5,82.5C 534.12,83.4933 538.786,83.8266 543.5,83.5C 543.5,84.5 543.5,85.5 543.5,86.5C 547.534,86.4955 551.534,86.1621 555.5,85.5C 555.714,83.8561 555.38,82.3561 554.5,81C 557.833,80.3333 561.167,80.3333 564.5,81C 561.774,81.1816 559.107,81.6816 556.5,82.5C 556.624,83.1067 556.957,83.44 557.5,83.5 Z M 560.5,85.5 C 570.655,101.652 584.322,113.985 601.5,122.5C 602.678,110.164 602.678,97.8311 601.5,85.5C 587.693,84.2119 574.026,84.2119 560.5,85.5 Z"/></g>
<g><path style="opacity:0.059" fill="#dbe0e6" d="M 602.5,83.5 C 603.222,83.9175 603.722,84.5842 604,85.5C 604.5,98.8292 604.667,112.163 604.5,125.5C 596.02,122.925 588.353,118.758 581.5,113C 576,107.5 570.5,102 565,96.5C 561.845,92.5198 559.345,88.1864 557.5,83.5C 572.372,82.1917 587.372,82.1917 602.5,83.5 Z M 560.5,85.5 C 570.655,101.652 584.322,113.985 601.5,122.5C 602.678,110.164 602.678,97.8311 601.5,85.5C 587.693,84.2119 574.026,84.2119 560.5,85.5 Z"/></g>
<g><path style="opacity:0.996" fill="#152028" d="M 110.5,142.5 C 101.861,147.822 93.1946,153.156 84.5,158.5C 83.3334,218.497 83.1667,278.497 84,338.5C 105.597,346.581 123.764,359.581 138.5,377.5C 138.25,378.922 137.417,379.922 136,380.5C 135.503,382.81 135.337,385.143 135.5,387.5C 136.833,387.5 138.167,387.5 139.5,387.5C 139.5,390.167 139.5,392.833 139.5,395.5C 136.833,395.5 134.167,395.5 131.5,395.5C 131.672,397.492 131.005,399.158 129.5,400.5C 130.988,402.577 132.988,403.577 135.5,403.5C 135.5,407.833 135.5,412.167 135.5,416.5C 132.682,416.343 130.682,415.009 129.5,412.5C 128.136,408.107 125.969,404.107 123,400.5C 114.492,391.512 105.325,383.345 95.5,376C 92.2683,373.886 88.9349,372.053 85.5,370.5C 84.791,369.596 83.791,369.263 82.5,369.5C 81.5029,368.287 80.5029,368.454 79.5,370C 79.8333,370.333 80.1667,370.667 80.5,371C 79.552,371.483 78.552,371.649 77.5,371.5C 76.8717,386.674 77.5383,401.674 79.5,416.5C 78.8333,417.167 78.1667,417.833 77.5,418.5C 79.0049,419.842 79.6715,421.508 79.5,423.5C 82.6008,423.308 85.6008,422.642 88.5,421.5C 89.1667,421.833 89.8333,422.167 90.5,422.5C 105.347,420.765 120.347,419.765 135.5,419.5C 136.255,422.512 137.588,425.178 139.5,427.5C 140.833,427.5 142.167,427.5 143.5,427.5C 143.5,428.833 143.5,430.167 143.5,431.5C 144.978,431.238 146.311,431.571 147.5,432.5C 145.955,434.44 143.955,435.606 141.5,436C 141.833,436.333 142.167,436.667 142.5,437C 146.852,437.752 151.185,438.585 155.5,439.5C 151.5,440.167 147.5,440.833 143.5,441.5C 143.167,442.5 142.5,443.167 141.5,443.5C 139.591,442.652 137.591,442.318 135.5,442.5C 135.769,440.571 135.269,438.905 134,437.5C 132.983,440.028 131.816,440.028 130.5,437.5C 128.679,438.728 127.679,440.394 127.5,442.5C 124.294,443.152 120.96,442.985 117.5,442C 115.746,439.173 113.912,439.006 112,441.5C 104.515,438.939 97.0146,438.939 89.5,441.5C 87.1162,440.988 84.7828,440.321 82.5,439.5C 81.914,439.709 81.414,440.043 81,440.5C 79.4285,439.796 77.7618,438.463 76,436.5C 75.5065,434.866 75.3398,433.199 75.5,431.5C 70.8941,430.209 66.2274,429.042 61.5,428C 61.8333,427.667 62.1667,427.333 62.5,427C 60.4376,425.468 59.1043,423.468 58.5,421C 59.0439,415.673 59.3772,409.839 59.5,403.5C 58.1667,403.5 56.8333,403.5 55.5,403.5C 55.8432,405.483 55.1765,406.817 53.5,407.5C 53.5,301.5 53.5,195.5 53.5,89.5C 54.404,90.209 54.7373,91.209 54.5,92.5C 55.5,92.5 56.5,92.5 57.5,92.5C 57.0632,89.1934 57.7298,86.1934 59.5,83.5C 60.205,86.089 60.205,88.7557 59.5,91.5C 60.8333,91.5 62.1667,91.5 63.5,91.5C 63.5,90.1667 63.5,88.8333 63.5,87.5C 64.8333,87.5 66.1667,87.5 67.5,87.5C 67.5,88.8333 67.5,90.1667 67.5,91.5C 68.8333,91.5 70.1667,91.5 71.5,91.5C 71.5,94.1667 71.5,96.8333 71.5,99.5C 72.8333,99.5 74.1667,99.5 75.5,99.5C 77.2626,91.5913 78.5959,83.5913 79.5,75.5C 90.2074,75.3623 100.874,74.6956 111.5,73.5C 111.5,71.5 111.5,69.5 111.5,67.5C 115.5,67.5 119.5,67.5 123.5,67.5C 122.923,71.7836 124.59,74.7836 128.5,76.5C 130.895,75.4775 131.895,76.4775 131.5,79.5C 128.813,79.3359 126.146,79.5026 123.5,80C 126.76,80.7835 129.927,80.6168 133,79.5C 133.182,82.2263 133.682,84.8929 134.5,87.5C 136.356,88.2758 137.689,89.6091 138.5,91.5C 139.489,95.1073 139.823,98.774 139.5,102.5C 140.833,102.5 142.167,102.5 143.5,102.5C 143.5,103.833 143.5,105.167 143.5,106.5C 142.325,106.281 141.325,106.614 140.5,107.5C 137.894,111.948 135.061,116.281 132,120.5C 129.609,119.398 129.109,120.064 130.5,122.5C 129.052,123.354 127.719,124.354 126.5,125.5C 125.914,125.291 125.414,124.957 125,124.5C 121.952,128.592 118.452,132.258 114.5,135.5C 110.246,136.35 108.913,138.684 110.5,142.5 Z M 97.5,84.5 C 93.9694,85.2296 90.3027,85.8963 86.5,86.5C 85.501,98.4815 85.1677,110.482 85.5,122.5C 86.8734,122.657 88.2068,122.49 89.5,122C 104.404,112.098 117.07,99.7648 127.5,85C 117.506,84.5002 107.506,84.3335 97.5,84.5 Z M 85.5,373.5 C 85.5,386.167 85.5,398.833 85.5,411.5C 99.1814,411.382 112.848,411.716 126.5,412.5C 125.379,408.526 123.546,404.86 121,401.5C 110.287,390.583 98.4538,381.25 85.5,373.5 Z"/></g>
<g><path style="opacity:0.067" fill="#e4eaec" d="M 89.5,82.5 C 103.183,82.1675 116.85,82.5008 130.5,83.5C 119.678,102.491 104.511,116.824 85,126.5C 83.8483,119.495 83.3483,112.328 83.5,105C 83.8333,98.1667 84.1667,91.3333 84.5,84.5C 86.3361,83.9724 88.0028,83.3058 89.5,82.5 Z M 97.5,84.5 C 93.9694,85.2296 90.3027,85.8963 86.5,86.5C 85.501,98.4815 85.1677,110.482 85.5,122.5C 86.8734,122.657 88.2068,122.49 89.5,122C 104.404,112.098 117.07,99.7648 127.5,85C 117.506,84.5002 107.506,84.3335 97.5,84.5 Z"/></g>
<g><path style="opacity:0.02" fill="#edf5f8" d="M 602.5,369.5 C 603.496,383.99 603.829,398.657 603.5,413.5C 602.5,413.5 601.5,413.5 600.5,413.5C 586.459,414.149 572.792,413.482 559.5,411.5C 560.621,407.526 562.454,403.86 565,400.5C 571.135,393.364 577.635,386.531 584.5,380C 590.145,375.846 596.145,372.346 602.5,369.5 Z M 599.5,372.5 C 584.948,381.55 572.781,393.216 563,407.5C 561.991,409.025 561.491,410.692 561.5,412.5C 575.149,411.662 588.816,411.329 602.5,411.5C 602.666,401.828 602.5,392.161 602,382.5C 602.083,378.689 601.25,375.355 599.5,372.5 Z"/></g>
<g><path style="opacity:0.61" fill="#455259" d="M 82.5,369.5 C 83.791,369.263 84.791,369.596 85.5,370.5C 83.5216,381.785 82.8549,393.452 83.5,405.5C 82.5049,393.678 82.1716,381.678 82.5,369.5 Z"/></g>
<g><path style="opacity:0.29" fill="#9fa9b0" d="M 602.5,369.5 C 602.5,369.167 602.5,368.833 602.5,368.5C 603.831,375.636 604.497,383.136 604.5,391C 604.5,398.674 604.166,406.174 603.5,413.5C 603.829,398.657 603.496,383.99 602.5,369.5 Z"/></g>
<g><path style="opacity:0.29" fill="#e6e9ee" d="M 85.5,370.5 C 88.9349,372.053 92.2683,373.886 95.5,376C 105.325,383.345 114.492,391.512 123,400.5C 125.969,404.107 128.136,408.107 129.5,412.5C 129.5,413.5 129.5,414.5 129.5,415.5C 114.224,413.793 98.8908,413.127 83.5,413.5C 83.5,410.833 83.5,408.167 83.5,405.5C 82.8549,393.452 83.5216,381.785 85.5,370.5 Z M 85.5,373.5 C 85.5,386.167 85.5,398.833 85.5,411.5C 99.1814,411.382 112.848,411.716 126.5,412.5C 125.379,408.526 123.546,404.86 121,401.5C 110.287,390.583 98.4538,381.25 85.5,373.5 Z"/></g>
<g><path style="opacity:0.348" fill="#949b9e" d="M 558.5,411.5 C 558.833,411.5 559.167,411.5 559.5,411.5C 572.792,413.482 586.459,414.149 600.5,413.5C 586.677,414.496 572.677,414.829 558.5,414.5C 558.5,413.5 558.5,412.5 558.5,411.5 Z"/></g>
<g><path style="opacity:0.995" fill="#142029" d="M 562.5,363.5 C 564.223,367.299 562.89,369.132 558.5,369C 554.111,372.771 554.444,374.771 559.5,375C 557.109,376.309 557.109,377.309 559.5,378C 558.382,379.074 557.382,380.24 556.5,381.5C 555.784,380.689 554.95,380.022 554,379.5C 547.306,380.695 543.472,384.695 542.5,391.5C 540.419,393.288 538.419,395.121 536.5,397C 536.957,397.414 537.291,397.914 537.5,398.5C 536.248,400.001 535.248,401.668 534.5,403.5C 533.914,403.291 533.414,402.957 533,402.5C 530.697,403.744 530.197,405.411 531.5,407.5C 528.833,408.833 528.833,410.167 531.5,411.5C 530.998,412.716 530.665,413.883 530.5,415C 531.704,417.277 533.37,417.777 535.5,416.5C 533.995,415.158 533.328,413.492 533.5,411.5C 539.304,409.344 545.304,408.011 551.5,407.5C 551.672,405.508 551.005,403.842 549.5,402.5C 551.005,401.158 551.672,399.492 551.5,397.5C 554.167,398.167 556.833,398.833 559.5,399.5C 560.167,396.833 560.833,394.167 561.5,391.5C 563.492,391.672 565.158,391.005 566.5,389.5C 567.711,390.274 567.711,391.107 566.5,392C 567.935,391.689 569.268,391.855 570.5,392.5C 571.641,390.579 571.808,388.579 571,386.5C 570.346,387.696 569.846,387.696 569.5,386.5C 574.787,385.983 578.287,383.316 580,378.5C 580.333,378.833 580.667,379.167 581,379.5C 581.5,377.667 582.667,376.5 584.5,376C 583.62,374.644 583.286,373.144 583.5,371.5C 585.5,371.5 587.5,371.5 589.5,371.5C 589.343,370.127 589.51,368.793 590,367.5C 594.141,368.158 598.308,368.492 602.5,368.5C 602.5,368.833 602.5,369.167 602.5,369.5C 596.145,372.346 590.145,375.846 584.5,380C 577.635,386.531 571.135,393.364 565,400.5C 562.454,403.86 560.621,407.526 559.5,411.5C 559.167,411.5 558.833,411.5 558.5,411.5C 558.565,411.062 558.399,410.728 558,410.5C 556.148,414.293 554.981,418.293 554.5,422.5C 553.675,423.386 552.675,423.719 551.5,423.5C 551.5,427.5 551.5,431.5 551.5,435.5C 549.833,435.5 548.167,435.5 546.5,435.5C 546.762,436.978 546.429,438.311 545.5,439.5C 543.283,438.428 540.95,437.761 538.5,437.5C 532.306,439.268 526.139,439.935 520,439.5C 519.51,438.207 519.343,436.873 519.5,435.5C 518.167,435.5 516.833,435.5 515.5,435.5C 515.92,437.674 515.92,439.674 515.5,441.5C 499.672,442.167 484.005,442.833 468.5,443.5C 457.828,443.667 447.161,443.5 436.5,443C 433.659,438.993 430.325,435.493 426.5,432.5C 430.296,427.112 432.296,421.112 432.5,414.5C 463.507,413.818 494.507,413.485 525.5,413.5C 528.22,406.391 531.72,399.725 536,393.5C 543.955,382.712 552.788,372.712 562.5,363.5 Z"/></g>
<g><path style="opacity:0.996" fill="#16222b" d="M 82.5,369.5 C 82.1716,381.678 82.5049,393.678 83.5,405.5C 83.5,408.167 83.5,410.833 83.5,413.5C 98.8908,413.127 114.224,413.793 129.5,415.5C 129.5,414.5 129.5,413.5 129.5,412.5C 130.682,415.009 132.682,416.343 135.5,416.5C 135.5,412.167 135.5,407.833 135.5,403.5C 132.988,403.577 130.988,402.577 129.5,400.5C 131.005,399.158 131.672,397.492 131.5,395.5C 134.167,395.5 136.833,395.5 139.5,395.5C 139.5,392.833 139.5,390.167 139.5,387.5C 138.167,387.5 136.833,387.5 135.5,387.5C 135.337,385.143 135.503,382.81 136,380.5C 137.417,379.922 138.25,378.922 138.5,377.5C 148.329,388.636 157.329,400.469 165.5,413C 195.173,413.393 224.84,414.06 254.5,415C 255.855,421.4 258.188,427.4 261.5,433C 257.116,435.717 253.782,439.384 251.5,444C 194.167,444.667 136.833,444.667 79.5,444C 62.13,438.117 53.4633,425.951 53.5,407.5C 55.1765,406.817 55.8432,405.483 55.5,403.5C 56.8333,403.5 58.1667,403.5 59.5,403.5C 59.3772,409.839 59.0439,415.673 58.5,421C 59.1043,423.468 60.4376,425.468 62.5,427C 62.1667,427.333 61.8333,427.667 61.5,428C 66.2274,429.042 70.8941,430.209 75.5,431.5C 75.3398,433.199 75.5065,434.866 76,436.5C 77.7618,438.463 79.4285,439.796 81,440.5C 81.414,440.043 81.914,439.709 82.5,439.5C 84.7828,440.321 87.1162,440.988 89.5,441.5C 97.0146,438.939 104.515,438.939 112,441.5C 113.912,439.006 115.746,439.173 117.5,442C 120.96,442.985 124.294,443.152 127.5,442.5C 127.679,440.394 128.679,438.728 130.5,437.5C 131.816,440.028 132.983,440.028 134,437.5C 135.269,438.905 135.769,440.571 135.5,442.5C 137.591,442.318 139.591,442.652 141.5,443.5C 142.5,443.167 143.167,442.5 143.5,441.5C 147.5,440.833 151.5,440.167 155.5,439.5C 151.185,438.585 146.852,437.752 142.5,437C 142.167,436.667 141.833,436.333 141.5,436C 143.955,435.606 145.955,434.44 147.5,432.5C 146.311,431.571 144.978,431.238 143.5,431.5C 143.5,430.167 143.5,428.833 143.5,427.5C 142.167,427.5 140.833,427.5 139.5,427.5C 137.588,425.178 136.255,422.512 135.5,419.5C 120.347,419.765 105.347,420.765 90.5,422.5C 89.8333,422.167 89.1667,421.833 88.5,421.5C 85.6008,422.642 82.6008,423.308 79.5,423.5C 79.6715,421.508 79.0049,419.842 77.5,418.5C 78.1667,417.833 78.8333,417.167 79.5,416.5C 77.5383,401.674 76.8717,386.674 77.5,371.5C 78.552,371.649 79.552,371.483 80.5,371C 80.1667,370.667 79.8333,370.333 79.5,370C 80.5029,368.454 81.5029,368.287 82.5,369.5 Z"/></g>
<g><path style="opacity:0.081" fill="#e9edef" d="M 267.5,436.5 C 268.552,436.351 269.552,436.517 270.5,437C 275.251,445.733 281.917,452.733 290.5,458C 303.985,466.271 318.485,471.771 334,474.5C 334.357,492.504 334.857,510.504 335.5,528.5C 335.595,569.201 335.261,609.701 334.5,650C 330.5,650.667 326.5,650.667 322.5,650C 306.704,623.91 292.871,596.743 281,568.5C 280.221,567.272 279.221,566.272 278,565.5C 256.037,577.564 235.537,591.73 216.5,608C 212.008,609.669 207.508,609.835 203,608.5C 202.333,605.167 202.333,601.833 203,598.5C 211.632,580.943 219.299,562.943 226,544.5C 237.56,509.39 250.226,474.723 264,440.5C 265.376,439.295 266.542,437.962 267.5,436.5 Z"/></g>
<g><path style="opacity:0.066" fill="#eff3f5" d="M 335.5,300.5 C 355.696,299.067 373.696,304.567 389.5,317C 398.426,326.589 406.593,336.755 414,347.5C 418.576,357.053 421.409,367.053 422.5,377.5C 419.507,406.323 406.507,429.49 383.5,447C 354.281,462.16 325.948,460.827 298.5,443C 294.701,440.203 291.201,437.036 288,433.5C 277.172,419.508 269.839,403.842 266,386.5C 264.493,376.416 265.827,366.749 270,357.5C 280.383,333.117 297.55,315.284 321.5,304C 326.278,302.751 330.945,301.584 335.5,300.5 Z M 336.5,331.5 C 317.292,336.873 304.792,349.207 299,368.5C 296.14,387.919 301.64,404.419 315.5,418C 338.958,432.621 360.458,430.121 380,410.5C 396.279,383.796 392.446,360.296 368.5,340C 358.906,333.449 348.239,330.616 336.5,331.5 Z M 339.5,349.5 C 344.193,349.54 348.859,349.873 353.5,350.5C 354.78,351.931 356.447,352.598 358.5,352.5C 358.973,353.906 359.973,354.573 361.5,354.5C 361.973,355.906 362.973,356.573 364.5,356.5C 364.5,357.167 364.833,357.5 365.5,357.5C 365.5,358.167 365.833,358.5 366.5,358.5C 366.5,359.167 366.833,359.5 367.5,359.5C 367.5,360.167 367.833,360.5 368.5,360.5C 374.812,372.25 375.146,384.25 369.5,396.5C 368.094,396.973 367.427,397.973 367.5,399.5C 366.662,399.842 366.328,400.508 366.5,401.5C 364.5,402.833 362.833,404.5 361.5,406.5C 359.847,406.66 358.514,407.326 357.5,408.5C 356.508,408.328 355.842,408.662 355.5,409.5C 344.661,412.285 334.328,410.952 324.5,405.5C 324.5,404.833 324.167,404.5 323.5,404.5C 323.5,403.833 323.167,403.5 322.5,403.5C 322.5,402.833 322.167,402.5 321.5,402.5C 321.573,400.973 320.906,399.973 319.5,399.5C 312.586,387.253 312.253,374.92 318.5,362.5C 319.167,362.5 319.5,362.167 319.5,361.5C 321.5,360.167 323.167,358.5 324.5,356.5C 325.167,356.5 325.5,356.167 325.5,355.5C 329.151,354.341 332.485,352.674 335.5,350.5C 337.099,350.768 338.432,350.434 339.5,349.5 Z"/></g>
<g><path style="opacity:0.996" fill="#18232c" d="M 335.5,302.5 C 356.444,301.203 374.777,307.37 390.5,321C 395.911,329.082 402.078,336.582 409,343.5C 414.939,353.82 418.773,364.82 420.5,376.5C 418.05,399.897 408.717,420.064 392.5,437C 377.59,449.574 360.257,455.74 340.5,455.5C 308.874,452.778 287.041,436.778 275,407.5C 269.215,395.452 266.881,382.786 268,369.5C 275.254,344.584 289.754,325.084 311.5,311C 319.312,307.232 327.312,304.399 335.5,302.5 Z M 336.5,331.5 C 317.292,336.873 304.792,349.207 299,368.5C 296.14,387.919 301.64,404.419 315.5,418C 338.958,432.621 360.458,430.121 380,410.5C 396.279,383.796 392.446,360.296 368.5,340C 358.906,333.449 348.239,330.616 336.5,331.5 Z M 339.5,349.5 C 344.193,349.54 348.859,349.873 353.5,350.5C 354.78,351.931 356.447,352.598 358.5,352.5C 358.973,353.906 359.973,354.573 361.5,354.5C 361.973,355.906 362.973,356.573 364.5,356.5C 364.5,357.167 364.833,357.5 365.5,357.5C 365.5,358.167 365.833,358.5 366.5,358.5C 366.5,359.167 366.833,359.5 367.5,359.5C 367.5,360.167 367.833,360.5 368.5,360.5C 374.812,372.25 375.146,384.25 369.5,396.5C 368.094,396.973 367.427,397.973 367.5,399.5C 366.662,399.842 366.328,400.508 366.5,401.5C 364.5,402.833 362.833,404.5 361.5,406.5C 359.847,406.66 358.514,407.326 357.5,408.5C 356.508,408.328 355.842,408.662 355.5,409.5C 344.661,412.285 334.328,410.952 324.5,405.5C 324.5,404.833 324.167,404.5 323.5,404.5C 323.5,403.833 323.167,403.5 322.5,403.5C 322.5,402.833 322.167,402.5 321.5,402.5C 321.573,400.973 320.906,399.973 319.5,399.5C 312.586,387.253 312.253,374.92 318.5,362.5C 319.167,362.5 319.5,362.167 319.5,361.5C 321.5,360.167 323.167,358.5 324.5,356.5C 325.167,356.5 325.5,356.167 325.5,355.5C 329.151,354.341 332.485,352.674 335.5,350.5C 337.099,350.768 338.432,350.434 339.5,349.5 Z"/></g>
<g><path style="opacity:0.087" fill="#eaedef" d="M 333.5,329.5 C 350.284,327.539 364.617,332.372 376.5,344C 393.314,361.379 396.814,381.212 387,403.5C 374.869,423.647 357.035,432.147 333.5,429C 316.176,424.343 304.676,413.509 299,396.5C 290.894,364.045 302.394,341.712 333.5,329.5 Z M 336.5,331.5 C 317.292,336.873 304.792,349.207 299,368.5C 296.14,387.919 301.64,404.419 315.5,418C 338.958,432.621 360.458,430.121 380,410.5C 396.279,383.796 392.446,360.296 368.5,340C 358.906,333.449 348.239,330.616 336.5,331.5 Z M 339.5,349.5 C 344.193,349.54 348.859,349.873 353.5,350.5C 354.78,351.931 356.447,352.598 358.5,352.5C 358.973,353.906 359.973,354.573 361.5,354.5C 361.973,355.906 362.973,356.573 364.5,356.5C 364.5,357.167 364.833,357.5 365.5,357.5C 365.5,358.167 365.833,358.5 366.5,358.5C 366.5,359.167 366.833,359.5 367.5,359.5C 367.5,360.167 367.833,360.5 368.5,360.5C 374.812,372.25 375.146,384.25 369.5,396.5C 368.094,396.973 367.427,397.973 367.5,399.5C 366.662,399.842 366.328,400.508 366.5,401.5C 364.5,402.833 362.833,404.5 361.5,406.5C 359.847,406.66 358.514,407.326 357.5,408.5C 356.508,408.328 355.842,408.662 355.5,409.5C 344.661,412.285 334.328,410.952 324.5,405.5C 324.5,404.833 324.167,404.5 323.5,404.5C 323.5,403.833 323.167,403.5 322.5,403.5C 322.5,402.833 322.167,402.5 321.5,402.5C 321.573,400.973 320.906,399.973 319.5,399.5C 312.586,387.253 312.253,374.92 318.5,362.5C 319.167,362.5 319.5,362.167 319.5,361.5C 321.5,360.167 323.167,358.5 324.5,356.5C 325.167,356.5 325.5,356.167 325.5,355.5C 329.151,354.341 332.485,352.674 335.5,350.5C 337.099,350.768 338.432,350.434 339.5,349.5 Z"/></g>
<g><path style="opacity:0.029" fill="#fdfffe" d="M 361.5,406.5 C 360.713,408.104 359.38,408.771 357.5,408.5C 358.514,407.326 359.847,406.66 361.5,406.5 Z"/></g>
<g><path style="opacity:0.024" fill="#fcfdff" d="M 366.5,401.5 C 365.833,404.167 364.167,405.833 361.5,406.5C 362.833,404.5 364.5,402.833 366.5,401.5 Z"/></g>
<g><path style="opacity:0.038" fill="#fefffe" d="M 324.5,405.5 C 334.328,410.952 344.661,412.285 355.5,409.5C 352.36,411.305 348.86,412.305 345,412.5C 337.198,412.623 330.364,410.289 324.5,405.5 Z"/></g>
<g><path style="opacity:0.039" fill="#fefffe" d="M 319.5,399.5 C 320.906,399.973 321.573,400.973 321.5,402.5C 320.094,402.027 319.427,401.027 319.5,399.5 Z"/></g>
<g><path style="opacity:0.022" fill="#fcfcff" d="M 369.5,396.5 C 369.573,398.027 368.906,399.027 367.5,399.5C 367.427,397.973 368.094,396.973 369.5,396.5 Z"/></g>
<g><path style="opacity:0.037" fill="#fcfeff" d="M 368.5,360.5 C 370.708,361.894 372.208,363.894 373,366.5C 375,374.5 375,382.5 373,390.5C 372.576,393.025 371.41,395.025 369.5,396.5C 375.146,384.25 374.812,372.25 368.5,360.5 Z"/></g>
<g><path style="opacity:0.039" fill="#fefffe" d="M 318.5,362.5 C 312.253,374.92 312.586,387.253 319.5,399.5C 314.606,393.486 312.273,386.486 312.5,378.5C 312.408,372.261 314.408,366.928 318.5,362.5 Z"/></g>
<g><path style="opacity:0.034" fill="#fefffe" d="M 324.5,356.5 C 323.167,358.5 321.5,360.167 319.5,361.5C 320.167,358.833 321.833,357.167 324.5,356.5 Z"/></g>
<g><path style="opacity:0.037" fill="#fefffe" d="M 361.5,354.5 C 363.027,354.427 364.027,355.094 364.5,356.5C 362.973,356.573 361.973,355.906 361.5,354.5 Z"/></g>
<g><path style="opacity:0.044" fill="#fefffe" d="M 358.5,352.5 C 360.027,352.427 361.027,353.094 361.5,354.5C 359.973,354.573 358.973,353.906 358.5,352.5 Z"/></g>
<g><path style="opacity:0.04" fill="#fefffe" d="M 353.5,350.5 C 355.553,350.402 357.22,351.069 358.5,352.5C 356.447,352.598 354.78,351.931 353.5,350.5 Z"/></g>
<g><path style="opacity:0.041" fill="#fefffe" d="M 335.5,350.5 C 332.485,352.674 329.151,354.341 325.5,355.5C 328.247,352.793 331.58,351.127 335.5,350.5 Z"/></g>
<g><path style="opacity:0.037" fill="#fefffe" d="M 339.5,349.5 C 344.262,348.109 348.928,348.442 353.5,350.5C 348.859,349.873 344.193,349.54 339.5,349.5 Z"/></g>
<g><path style="opacity:0.996" fill="#192632" d="M 316.5,472.5 C 321.024,474.131 325.691,475.131 330.5,475.5C 331.828,528.766 331.828,582.099 330.5,635.5C 329.155,634.653 328.155,633.487 327.5,632C 326.451,631.508 325.451,631.674 324.5,632.5C 323.476,631.147 322.143,630.48 320.5,630.5C 320.335,626.818 320.501,623.152 321,619.5C 322,616.833 323,616.833 324,619.5C 324.361,596.603 322.195,573.936 317.5,551.5C 318.833,540.833 320.167,530.167 321.5,519.5C 319.73,510.256 319.063,500.923 319.5,491.5C 316.833,491.5 314.167,491.5 311.5,491.5C 311.5,486.167 311.5,480.833 311.5,475.5C 313.527,475.662 315.527,475.495 317.5,475C 315.381,474.658 315.047,473.825 316.5,472.5 Z"/></g>
<g><path style="opacity:0.996" fill="#16212a" d="M 316.5,472.5 C 315.047,473.825 315.381,474.658 317.5,475C 315.527,475.495 313.527,475.662 311.5,475.5C 311.5,480.833 311.5,486.167 311.5,491.5C 314.167,491.5 316.833,491.5 319.5,491.5C 319.063,500.923 319.73,510.256 321.5,519.5C 320.167,530.167 318.833,540.833 317.5,551.5C 322.195,573.936 324.361,596.603 324,619.5C 323,616.833 322,616.833 321,619.5C 320.501,623.152 320.335,626.818 320.5,630.5C 322.143,630.48 323.476,631.147 324.5,632.5C 325.451,631.674 326.451,631.508 327.5,632C 328.155,633.487 329.155,634.653 330.5,635.5C 331.828,582.099 331.828,528.766 330.5,475.5C 332.426,532.832 333.259,590.498 333,648.5C 328.533,650.433 324.867,649.433 322,645.5C 317.5,638.489 313.667,631.156 310.5,623.5C 310.541,621.255 311.375,620.588 313,621.5C 314.404,619.361 315.237,617.028 315.5,614.5C 313.704,601.27 311.037,588.27 307.5,575.5C 306.167,575.5 304.833,575.5 303.5,575.5C 303.5,574.167 303.5,572.833 303.5,571.5C 300.833,571.5 298.167,571.5 295.5,571.5C 295.5,572.833 295.5,574.167 295.5,575.5C 294.167,575.5 292.833,575.5 291.5,575.5C 291.5,568.833 291.5,562.167 291.5,555.5C 290.167,555.5 288.833,555.5 287.5,555.5C 287.762,554.022 287.429,552.689 286.5,551.5C 284.253,550.626 281.92,550.292 279.5,550.5C 279.5,551.5 279.5,552.5 279.5,553.5C 278.167,553.5 276.833,553.5 275.5,553.5C 275.5,551.5 275.5,549.5 275.5,547.5C 270.167,547.5 264.833,547.5 259.5,547.5C 259.5,549.5 259.5,551.5 259.5,553.5C 256.833,552.833 254.167,552.167 251.5,551.5C 251.5,552.833 251.5,554.167 251.5,555.5C 250.325,555.281 249.325,555.614 248.5,556.5C 246.5,558.5 244.5,560.5 242.5,562.5C 237.544,563.494 232.544,563.827 227.5,563.5C 227.773,565.451 227.107,566.951 225.5,568C 226.658,569.009 227.325,570.342 227.5,572C 226.664,574.49 225.998,576.99 225.5,579.5C 224.167,579.5 222.833,579.5 221.5,579.5C 222.154,574.848 220.82,574.181 217.5,577.5C 217.709,578.086 218.043,578.586 218.5,579C 214.212,584.076 211.379,589.91 210,596.5C 208.366,598.837 206.533,600.837 204.5,602.5C 212.085,586.514 218.918,570.181 225,553.5C 237.679,515.794 251.346,478.461 266,441.5C 267,440.5 268,439.5 269,438.5C 271,441.833 273,445.167 275,448.5C 287.235,459.203 301.069,467.203 316.5,472.5 Z"/></g>
<g><path style="opacity:0.996" fill="#101d27" d="M 310.5,623.5 C 300.262,604.689 290.762,585.356 282,565.5C 281.221,564.272 280.221,563.272 279,562.5C 256.374,574.894 235.208,589.394 215.5,606C 211.914,607.108 208.247,607.608 204.5,607.5C 204.5,605.833 204.5,604.167 204.5,602.5C 206.533,600.837 208.366,598.837 210,596.5C 211.379,589.91 214.212,584.076 218.5,579C 218.043,578.586 217.709,578.086 217.5,577.5C 220.82,574.181 222.154,574.848 221.5,579.5C 222.833,579.5 224.167,579.5 225.5,579.5C 225.998,576.99 226.664,574.49 227.5,572C 227.325,570.342 226.658,569.009 225.5,568C 227.107,566.951 227.773,565.451 227.5,563.5C 232.544,563.827 237.544,563.494 242.5,562.5C 244.5,560.5 246.5,558.5 248.5,556.5C 249.325,555.614 250.325,555.281 251.5,555.5C 251.5,554.167 251.5,552.833 251.5,551.5C 254.167,552.167 256.833,552.833 259.5,553.5C 259.5,551.5 259.5,549.5 259.5,547.5C 264.833,547.5 270.167,547.5 275.5,547.5C 275.5,549.5 275.5,551.5 275.5,553.5C 276.833,553.5 278.167,553.5 279.5,553.5C 279.5,552.5 279.5,551.5 279.5,550.5C 281.92,550.292 284.253,550.626 286.5,551.5C 287.429,552.689 287.762,554.022 287.5,555.5C 288.833,555.5 290.167,555.5 291.5,555.5C 291.5,562.167 291.5,568.833 291.5,575.5C 292.833,575.5 294.167,575.5 295.5,575.5C 295.5,574.167 295.5,572.833 295.5,571.5C 298.167,571.5 300.833,571.5 303.5,571.5C 303.5,572.833 303.5,574.167 303.5,575.5C 304.833,575.5 306.167,575.5 307.5,575.5C 311.037,588.27 313.704,601.27 315.5,614.5C 315.237,617.028 314.404,619.361 313,621.5C 311.375,620.588 310.541,621.255 310.5,623.5 Z"/></g>
<g><path style="opacity:0.012" fill="#e6ebef" d="M 416.5,434.5 C 419.642,434.799 421.809,436.466 423,439.5C 441.867,493.557 463.201,546.557 487,598.5C 490.614,608.796 487.114,612.963 476.5,611C 474.5,610 472.5,609 470.5,608C 452.354,589.773 431.687,575.273 408.5,564.5C 402.186,580.013 394.686,595.013 386,609.5C 380.667,620.833 375.333,632.167 370,643.5C 367.833,645.667 365.667,647.833 363.5,650C 360.084,650.893 356.917,650.393 354,648.5C 352.843,636.062 352.01,623.562 351.5,611C 351.851,565.599 352.018,520.099 352,474.5C 366.154,472.857 379.654,468.69 392.5,462C 397.956,458.213 403.123,454.046 408,449.5C 411.366,444.765 414.199,439.765 416.5,434.5 Z"/></g>
<g><path style="opacity:0.993" fill="#1a2831" d="M 431.5,471.5 C 443.736,501.654 455.736,531.987 467.5,562.5C 466.71,563.609 466.21,564.942 466,566.5C 465.612,565.572 464.945,564.905 464,564.5C 462.7,565.707 461.2,566.374 459.5,566.5C 459.5,565.5 459.5,564.5 459.5,563.5C 458.167,563.5 456.833,563.5 455.5,563.5C 455.5,560.833 455.5,558.167 455.5,555.5C 454.167,555.5 452.833,555.5 451.5,555.5C 451.5,554.167 451.5,552.833 451.5,551.5C 450.167,551.5 448.833,551.5 447.5,551.5C 447.5,550.167 447.5,548.833 447.5,547.5C 446.167,547.5 444.833,547.5 443.5,547.5C 443.5,539.5 443.5,531.5 443.5,523.5C 440.833,523.5 438.167,523.5 435.5,523.5C 435.215,519.975 435.881,516.642 437.5,513.5C 435.951,507.533 434.617,501.533 433.5,495.5C 431.5,495.5 429.5,495.5 427.5,495.5C 427.697,490.026 427.031,484.692 425.5,479.5C 428.012,479.577 430.012,478.577 431.5,476.5C 428.845,475.683 428.845,474.017 431.5,471.5 Z"/></g>
<g><path style="opacity:0.561" fill="#757e8b" d="M 355.5,475.5 C 354.503,495.326 354.17,515.326 354.5,535.5C 353.172,515.329 353.172,494.996 354.5,474.5C 355.107,474.624 355.44,474.957 355.5,475.5 Z"/></g>
<g><path style="opacity:0.996" fill="#152028" d="M 404.5,456.5 C 402.767,460.662 400.1,463.995 396.5,466.5C 398.334,468.498 399.334,470.832 399.5,473.5C 402.167,473.5 404.833,473.5 407.5,473.5C 407.5,474.833 407.5,476.167 407.5,477.5C 408.833,477.5 410.167,477.5 411.5,477.5C 411.5,479.5 411.5,481.5 411.5,483.5C 412.833,483.5 414.167,483.5 415.5,483.5C 415.5,487.5 415.5,491.5 415.5,495.5C 416.833,495.5 418.167,495.5 419.5,495.5C 419.5,496.833 419.5,498.167 419.5,499.5C 420.833,499.5 422.167,499.5 423.5,499.5C 423.5,507.5 423.5,515.5 423.5,523.5C 426.167,523.5 428.833,523.5 431.5,523.5C 431.5,528.833 431.5,534.167 431.5,539.5C 434.167,539.5 436.833,539.5 439.5,539.5C 439.5,546.167 439.5,552.833 439.5,559.5C 440.833,559.5 442.167,559.5 443.5,559.5C 443.5,560.833 443.5,562.167 443.5,563.5C 444.833,563.5 446.167,563.5 447.5,563.5C 447.5,566.167 447.5,568.833 447.5,571.5C 448.833,571.5 450.167,571.5 451.5,571.5C 451.5,572.833 451.5,574.167 451.5,575.5C 454.167,575.5 456.833,575.5 459.5,575.5C 459.5,576.833 459.5,578.167 459.5,579.5C 462.167,579.5 464.833,579.5 467.5,579.5C 467.335,576.15 467.502,572.817 468,569.5C 468.278,568.584 468.778,567.918 469.5,567.5C 476.181,579.2 481.514,591.534 485.5,604.5C 485.449,606.1 485.116,607.6 484.5,609C 480.262,609.823 476.262,609.156 472.5,607C 453.872,588.271 432.705,573.105 409,561.5C 406.609,565.939 403.942,570.272 401,574.5C 389.837,596.163 379.17,618.163 369,640.5C 367.188,643.28 365.021,645.78 362.5,648C 359.364,649.041 356.864,648.207 355,645.5C 354.5,608.835 354.333,572.168 354.5,535.5C 354.17,515.326 354.503,495.326 355.5,475.5C 373.673,473.669 390.006,467.335 404.5,456.5 Z"/></g>
<g><path style="opacity:0.996" fill="#16222d" d="M 431.5,471.5 C 428.845,474.017 428.845,475.683 431.5,476.5C 430.012,478.577 428.012,479.577 425.5,479.5C 427.031,484.692 427.697,490.026 427.5,495.5C 429.5,495.5 431.5,495.5 433.5,495.5C 434.617,501.533 435.951,507.533 437.5,513.5C 435.881,516.642 435.215,519.975 435.5,523.5C 438.167,523.5 440.833,523.5 443.5,523.5C 443.5,531.5 443.5,539.5 443.5,547.5C 444.833,547.5 446.167,547.5 447.5,547.5C 447.5,548.833 447.5,550.167 447.5,551.5C 448.833,551.5 450.167,551.5 451.5,551.5C 451.5,552.833 451.5,554.167 451.5,555.5C 452.833,555.5 454.167,555.5 455.5,555.5C 455.5,558.167 455.5,560.833 455.5,563.5C 456.833,563.5 458.167,563.5 459.5,563.5C 459.5,564.5 459.5,565.5 459.5,566.5C 461.2,566.374 462.7,565.707 464,564.5C 464.945,564.905 465.612,565.572 466,566.5C 466.21,564.942 466.71,563.609 467.5,562.5C 468.441,564.05 469.107,565.716 469.5,567.5C 468.778,567.918 468.278,568.584 468,569.5C 467.502,572.817 467.335,576.15 467.5,579.5C 464.833,579.5 462.167,579.5 459.5,579.5C 459.5,578.167 459.5,576.833 459.5,575.5C 456.833,575.5 454.167,575.5 451.5,575.5C 451.5,574.167 451.5,572.833 451.5,571.5C 450.167,571.5 448.833,571.5 447.5,571.5C 447.5,568.833 447.5,566.167 447.5,563.5C 446.167,563.5 444.833,563.5 443.5,563.5C 443.5,562.167 443.5,560.833 443.5,559.5C 442.167,559.5 440.833,559.5 439.5,559.5C 439.5,552.833 439.5,546.167 439.5,539.5C 436.833,539.5 434.167,539.5 431.5,539.5C 431.5,534.167 431.5,528.833 431.5,523.5C 428.833,523.5 426.167,523.5 423.5,523.5C 423.5,515.5 423.5,507.5 423.5,499.5C 422.167,499.5 420.833,499.5 419.5,499.5C 419.5,498.167 419.5,496.833 419.5,495.5C 418.167,495.5 416.833,495.5 415.5,495.5C 415.5,491.5 415.5,487.5 415.5,483.5C 414.167,483.5 412.833,483.5 411.5,483.5C 411.5,481.5 411.5,479.5 411.5,477.5C 410.167,477.5 408.833,477.5 407.5,477.5C 407.5,476.167 407.5,474.833 407.5,473.5C 404.833,473.5 402.167,473.5 399.5,473.5C 399.334,470.832 398.334,468.498 396.5,466.5C 400.1,463.995 402.767,460.662 404.5,456.5C 410.375,450.786 414.875,444.12 418,436.5C 419.385,437.551 420.385,438.884 421,440.5C 424.405,450.883 427.905,461.216 431.5,471.5 Z"/></g>
</svg>
